name GIL01_xslow2.mot
datacolumns 153
datarows 4
range 0.99166662 1.01666665
endheader

                time	           pelvis_tx	           pelvis_ty	           pelvis_tz	         pelvis_tilt	         pelvis_list	     pelvis_rotation	       hip_flexion_r	     hip_adduction_r	      hip_rotation_r	        knee_angle_r	       ankle_angle_r	    subtalar_angle_r	         mtp_angle_r	       hip_flexion_l	     hip_adduction_l	      hip_rotation_l	        knee_angle_l	       ankle_angle_l	    subtalar_angle_l	         mtp_angle_l	    lumbar_extension	      lumbar_bending	     lumbar_rotation	     ground_force_vx	     ground_force_vy	     ground_force_vz	     ground_force_px	     ground_force_py	     ground_force_pz	     ground_force_vx	     ground_force_vy	     ground_force_vz	     ground_force_px	     ground_force_py	     ground_force_pz	     ground_torque_x	     ground_torque_y	     ground_torque_z	     ground_torque_x	     ground_torque_y	     ground_torque_z	    ground_marker_px	    ground_marker_py	    ground_marker_pz	    ground_marker_px	    ground_marker_py	    ground_marker_pz	    ground_marker_px	    ground_marker_py	    ground_marker_pz	    ground_marker_px	    ground_marker_py	    ground_marker_pz	    ground_marker_px	    ground_marker_py	    ground_marker_pz	    ground_marker_px	    ground_marker_py	    ground_marker_pz	    ground_marker_px	    ground_marker_py	    ground_marker_pz	    ground_marker_px	    ground_marker_py	    ground_marker_pz	    ground_marker_px	    ground_marker_py	    ground_marker_pz	    ground_marker_px	    ground_marker_py	    ground_marker_pz	    ground_marker_px	    ground_marker_py	    ground_marker_pz	    ground_marker_px	    ground_marker_py	    ground_marker_pz	    ground_marker_px	    ground_marker_py	    ground_marker_pz	    ground_marker_px	    ground_marker_py	    ground_marker_pz	    ground_marker_px	    ground_marker_py	    ground_marker_pz	    ground_marker_px	    ground_marker_py	    ground_marker_pz	    ground_marker_px	    ground_marker_py	    ground_marker_pz	    ground_marker_px	    ground_marker_py	    ground_marker_pz	    ground_marker_px	    ground_marker_py	    ground_marker_pz	    ground_marker_px	    ground_marker_py	    ground_marker_pz	    ground_marker_px	    ground_marker_py	    ground_marker_pz	    ground_marker_px	    ground_marker_py	    ground_marker_pz	    ground_marker_px	    ground_marker_py	    ground_marker_pz	    ground_marker_px	    ground_marker_py	    ground_marker_pz	    ground_marker_px	    ground_marker_py	    ground_marker_pz	    ground_marker_px	    ground_marker_py	    ground_marker_pz	    ground_marker_px	    ground_marker_py	    ground_marker_pz	    ground_marker_px	    ground_marker_py	    ground_marker_pz	    ground_marker_px	    ground_marker_py	    ground_marker_pz	    ground_marker_px	    ground_marker_py	    ground_marker_pz	    ground_marker_px	    ground_marker_py	    ground_marker_pz	    ground_marker_px	    ground_marker_py	    ground_marker_pz	    ground_marker_px	    ground_marker_py	    ground_marker_pz	    ground_marker_px	    ground_marker_py	    ground_marker_pz	    ground_marker_px	    ground_marker_py	    ground_marker_pz	    ground_marker_px	    ground_marker_py	    ground_marker_pz	    ground_marker_px	    ground_marker_py	    ground_marker_pz	
          0.99166662	          1.16608727	          0.80073965	         -0.24133870	         -2.38880730	         -2.85225606	          7.90831947	         20.33294678	          0.70819765	         -0.19061401	         -7.66329145	         -9.44286251	          0.00000000	          0.00000000	        -12.53830528	         -4.34410477	         -7.76186228	        -14.06050110	          3.52831483	          0.00000000	          0.00000000	         -7.66741419	          4.32480431	         -4.42616701	        -35.32537408	        266.68843089	        -16.99277550	          1.24165088	          0.00000000	         -0.16720160	         35.45935764	        144.14411167	          3.56402868	          0.90144586	          0.00000000	         -0.30668640	          0.00000000	          0.73737915	          0.00000000	          0.00000000	         -0.86289417	          0.00000000	          1.11388195	          0.73961496	         -0.23392306	          1.10531342	          0.73357922	         -0.16561396	          1.08634996	          0.73181337	         -0.29453021	          1.20932376	          0.40402928	         -0.18072161	          1.00047255	          0.42252624	         -0.30224580	          1.27032340	          0.06714918	         -0.17532988	          0.81922853	          0.10922848	         -0.30951256	          1.16608727	          0.80073965	         -0.24133870	          1.18084168	          0.80211353	         -0.14103685	          1.15133286	          0.79936570	         -0.34164056	          1.01609540	          0.84249234	         -0.18542017	          1.00588453	          0.84155524	         -0.23915519	          1.21736002	          0.40407130	         -0.12631188	          0.98665696	          0.42767119	         -0.35471398	          1.19514132	          0.40306142	         -0.22299577	          1.00514638	          0.39858529	         -0.25394577	          1.26982594	          0.06765918	         -0.13783665	          0.81049359	          0.11510439	         -0.34498331	          1.27272999	          0.06703093	         -0.20023394	          0.82037246	          0.10980009	         -0.27916193	          1.03286123	          1.20776939	         -0.22359882	          1.14234078	          1.14870989	         -0.19053791	          1.13801491	          1.15231454	         -0.26650381	          1.12540543	          1.14936030	         -0.22913311	          1.15335977	          1.06709182	         -0.23221722	          1.28546071	          0.54937571	         -0.08426210	          1.17048490	          0.50946534	         -0.34554723	          1.19298506	          0.57959181	         -0.10061464	          1.11101401	          0.58484977	         -0.35849386	          1.21320939	          0.49810228	         -0.11831819	          1.07900417	          0.50392348	         -0.35351637	          1.25212479	          0.17566720	         -0.06199393	          0.88197267	          0.22070269	         -0.41894647	          1.24813402	          0.13984534	         -0.13671640	          0.85179609	          0.18995570	         -0.34673944	          1.37081861	          0.04099758	         -0.15952033	          0.89289510	          0.04004207	         -0.32389748	
          0.99999994	          1.17216814	          0.80217469	         -0.23946968	         -2.42019176	         -2.88506866	          7.93068552	         19.74033928	          0.97938293	         -0.44586492	         -7.36445951	         -9.13153839	          0.00000000	          0.00000000	        -11.83904552	         -4.63506413	         -7.68588066	        -15.71452427	          2.14304352	          0.00000000	          0.00000000	         -7.65072203	          4.12056541	         -3.77577972	        -33.47517719	        270.28763565	        -16.18329169	          1.24163306	          0.00000000	         -0.16709886	         33.07545836	        124.94507404	          2.90896705	          0.90219031	          0.00000000	         -0.30576703	          0.00000000	          0.61586792	          0.00000000	          0.00000000	         -0.72046533	          0.00000000	          1.11929989	          0.74045599	         -0.23164189	          1.11139572	          0.73508346	         -0.16368261	          1.09236419	          0.73326939	         -0.29258814	          1.21152508	          0.40461281	         -0.17978829	          1.00975442	          0.42280707	         -0.30227950	          1.27043104	          0.06714620	         -0.17520303	          0.82314253	          0.11289670	         -0.30959365	          1.17216814	          0.80217469	         -0.23946968	          1.18697536	          0.80358613	         -0.13917722	          1.15736091	          0.80076331	         -0.33976215	          1.02215469	          0.84412187	         -0.18352903	          1.01192379	          0.84303051	         -0.23726261	          1.21942616	          0.40435416	         -0.12535937	          0.99598193	          0.42810944	         -0.35474336	          1.19619882	          0.40426177	         -0.22227779	          1.01404846	          0.39852756	         -0.25403628	          1.26992810	          0.06756786	         -0.13770875	          0.81450075	          0.11893736	         -0.34505957	          1.27274036	          0.06711178	         -0.20017828	          0.82469064	          0.11336620	         -0.27935642	          1.03862667	          1.20922637	         -0.22176234	          1.14836812	          1.15040553	         -0.18924119	          1.14311385	          1.15386057	         -0.26504117	          1.13096297	          1.15096855	         -0.22756967	          1.15894353	          1.06871617	         -0.23084512	          1.28899860	          0.54859525	         -0.08269964	          1.17867076	          0.51113456	         -0.34475392	          1.19731927	          0.58018607	         -0.09899023	          1.11856937	          0.58620018	         -0.35748437	          1.21601880	          0.49839410	         -0.11711259	          1.08720899	          0.50492281	         -0.35295209	          1.25289392	          0.17547946	         -0.06166052	          0.88771403	          0.22316206	         -0.41920426	          1.24860692	          0.13988183	         -0.13651234	          0.85736614	          0.19282953	         -0.34673950	          1.37084520	          0.04088435	         -0.15983166	          0.89412248	          0.04044599	         -0.32367089	
          1.00833321	          1.17814541	          0.80359960	         -0.23760547	         -2.44830036	         -2.88560748	          7.93969154	         19.15787315	          1.23091054	         -0.66847318	         -7.08529186	         -8.79886341	          0.00000000	          0.00000000	        -11.04430389	         -4.88640261	         -7.60183048	        -17.49710274	          0.59737295	          0.00000000	          0.00000000	         -7.83152294	          3.91698122	         -3.11475825	        -31.91342870	        273.43787681	        -15.22434499	          1.24162793	          0.00000000	         -0.16697971	         29.97265387	        105.30978173	          2.27847490	          0.90291193	          0.00000000	         -0.30499298	          0.00000000	          0.45027148	          0.00000000	          0.00000000	         -0.57937933	          0.00000000	          1.12393773	          0.74057782	         -0.22921671	          1.11735117	          0.73653644	         -0.16181104	          1.09829879	          0.73473573	         -0.29071370	          1.21370220	          0.40519914	         -0.17892653	          1.01953542	          0.42299026	         -0.30242473	          1.27050722	          0.06712785	         -0.17510845	          0.82756943	          0.11666849	         -0.30952141	          1.17814541	          0.80359960	         -0.23760547	          1.19296706	          0.80500048	         -0.13732687	          1.16332376	          0.80219877	         -0.33788407	          1.02811182	          0.84570855	         -0.18163793	          1.01786840	          0.84447336	         -0.23537092	          1.22146571	          0.40464425	         -0.12448005	          1.00580788	          0.42842937	         -0.35488635	          1.19750547	          0.40554640	         -0.22186960	          1.02366054	          0.39836329	         -0.25367001	          1.27007377	          0.06747848	         -0.13761260	          0.81898075	          0.12287210	         -0.34497207	          1.27272618	          0.06719405	         -0.20015478	          0.82957357	          0.11699055	         -0.27943599	          1.04437435	          1.21092832	         -0.21995027	          1.15411818	          1.15201139	         -0.18777013	          1.14795780	          1.15534496	         -0.26351747	          1.13625288	          1.15255046	         -0.22589193	          1.16398418	          1.07022142	         -0.22935528	          1.29242408	          0.54782736	         -0.08123534	          1.18722057	          0.51293021	         -0.34403631	          1.20141459	          0.58073837	         -0.09752281	          1.12633228	          0.58756179	         -0.35651457	          1.21877444	          0.49865612	         -0.11612941	          1.09567690	          0.50567150	         -0.35223472	          1.25385904	          0.17535685	         -0.06137800	          0.89381647	          0.22564225	         -0.41941965	          1.24919796	          0.13992667	         -0.13632421	          0.86346632	          0.19580041	         -0.34668416	          1.37087107	          0.04079746	         -0.16028117	          0.89549726	          0.04082723	         -0.32340473	
          1.01666665	          1.18400931	          0.80497795	         -0.23576578	         -2.47496891	         -2.85480928	          7.91770124	         18.59114456	          1.45781589	         -0.81608742	         -6.82874203	         -8.45277214	          0.00000000	          0.00000000	        -10.16252136	         -5.09481525	         -7.50531530	        -19.38884354	         -1.11995757	          0.00000000	          0.00000000	         -7.73499107	          4.20826340	         -3.84730506	        -30.65502910	        277.14551848	        -14.08791568	          1.24167798	          0.00000000	         -0.16683675	         26.24067220	         85.46177437	          1.67505587	          0.90372821	          0.00000000	         -0.30440579	          0.00000000	          0.24798438	          0.00000000	          0.00000000	         -0.44418896	          0.00000000	          1.12892413	          0.74111938	         -0.22690675	          1.12314701	          0.73790967	         -0.16003057	          1.10415888	          0.73617220	         -0.28894359	          1.21586263	          0.40575379	         -0.17809126	          1.02978277	          0.42306009	         -0.30268496	          1.27056646	          0.06709365	         -0.17503425	          0.83256048	          0.12049428	         -0.30928165	          1.18400931	          0.80497795	         -0.23576578	          1.19877768	          0.80632931	         -0.13550135	          1.16924107	          0.80362660	         -0.33603022	          1.03395021	          0.84722185	         -0.17977631	          1.02370906	          0.84585327	         -0.23351507	          1.22350919	          0.40492699	         -0.12363166	          1.01612246	          0.42860755	         -0.35515282	          1.19920433	          0.40679786	         -0.22145978	          1.03439105	          0.39759466	         -0.25326183	          1.27026320	          0.06738315	         -0.13753660	          0.82397312	          0.12686408	         -0.34470317	          1.27268720	          0.06723760	         -0.20013030	          0.83500147	          0.12065814	         -0.27932641	          1.05005527	          1.21270788	         -0.21811260	          1.15979600	          1.15340853	         -0.18600759	          1.15470052	          1.15698600	         -0.26169032	          1.14246786	          1.15407550	         -0.22430657	          1.17021930	          1.07174861	         -0.22765331	          1.29579186	          0.54708040	         -0.07988854	          1.19609237	          0.51483655	         -0.34333813	          1.20531714	          0.58125365	         -0.09604211	          1.13402200	          0.58874279	         -0.35555437	          1.22163188	          0.49890175	         -0.11516402	          1.10463870	          0.50631106	         -0.35151941	          1.25498879	          0.17526573	         -0.06112045	          0.90027213	          0.22813646	         -0.41956806	          1.24984419	          0.13995168	         -0.13612889	          0.87003833	          0.19881038	         -0.34659263	          1.37090361	          0.04072313	         -0.16080542	          0.89704275	          0.04117374	         -0.32306883	
